<svg width="29" height="28" viewBox="0 0 29 28" fill="none" xmlns="http://www.w3.org/2000/svg">
<path d="M14.4444 1C11.2525 0.998362 8.16429 2.13299 5.73268 4.20071C3.30106 6.26843 1.6849 9.1342 1.17357 12.2849C0.662244 15.4356 1.28915 18.6654 2.94204 21.396C4.59493 24.1266 7.16584 26.1796 10.1944 27.1875C10.8694 27.3125 11.1132 26.9 11.1132 26.5625V24.2813C7.36318 25.0938 6.58818 22.4813 6.58818 22.4813C6.34014 21.6546 5.80047 20.9462 5.06943 20.4875C3.85068 19.6563 5.16318 19.6688 5.16318 19.6688C5.5889 19.7283 5.99541 19.8843 6.35175 20.1247C6.70808 20.3652 7.00484 20.6838 7.21943 21.0563C8.41943 23.1125 10.3444 22.5188 11.1319 22.175C11.1936 21.4921 11.4972 20.8537 11.9882 20.375C9.00068 20.0375 5.86318 18.8875 5.86318 13.7375C5.84403 12.4016 6.34104 11.1098 7.25068 10.1313C6.83716 8.97281 6.88414 7.69981 7.38193 6.575C7.38193 6.575 8.50693 6.2125 11.0757 7.95C13.2772 7.34999 15.5992 7.34999 17.8007 7.95C20.3694 6.2125 21.4944 6.575 21.4944 6.575C21.9885 7.70068 22.0354 8.97222 21.6257 10.1313C22.5342 11.1101 23.0291 12.4022 23.0069 13.7375C23.0069 18.9 19.8819 20.0313 16.8757 20.3688C17.1983 20.6956 17.4467 21.088 17.6042 21.5194C17.7616 21.9508 17.8244 22.411 17.7882 22.8688V26.5563C17.7882 27 18.0319 27.3313 18.7132 27.1813C21.7387 26.1695 24.3055 24.1142 25.9545 21.3833C27.6035 18.6523 28.2271 15.4237 27.7137 12.2751C27.2004 9.1265 25.5835 6.26323 23.1524 4.1975C20.7214 2.13178 17.6346 0.998359 14.4444 1Z" stroke="#227093" stroke-linecap="round" stroke-linejoin="round"/>
</svg>
