<svg width="25" height="25" viewBox="0 0 25 25" fill="none" xmlns="http://www.w3.org/2000/svg">
<path d="M7.18823 5.85001C7.18823 5.83275 7.20222 5.81876 7.21948 5.81876C7.23674 5.81876 7.25073 5.83275 7.25073 5.85001C7.25073 5.86727 7.23674 5.88126 7.21948 5.88126C7.20222 5.88126 7.18823 5.86726 7.18823 5.85001Z" fill="black" stroke="#227093"/>
<path d="M7.21948 8.01874V17.3812M18.1382 17.3812V11.375C18.1366 10.4108 17.7528 9.48652 17.071 8.80471C16.3892 8.12291 15.465 7.73914 14.5007 7.73749C13.5354 7.73749 12.6096 8.12052 11.9264 8.80251C11.2433 9.48449 10.8586 10.4097 10.857 11.375M10.857 11.375V17.3812M10.857 11.375V8.01874" stroke="#227093" stroke-linecap="round" stroke-linejoin="round"/>
<path d="M22.757 0.875H2.13196C1.80044 0.875 1.48249 1.0067 1.24807 1.24112C1.01365 1.47554 0.881958 1.79348 0.881958 2.125V22.75C0.881958 23.0815 1.01365 23.3995 1.24807 23.6339C1.48249 23.8683 1.80044 24 2.13196 24H22.757C23.0885 24 23.4064 23.8683 23.6408 23.6339C23.8753 23.3995 24.007 23.0815 24.007 22.75V2.125C24.007 1.79348 23.8753 1.47554 23.6408 1.24112C23.4064 1.0067 23.0885 0.875 22.757 0.875Z" stroke="#227093" stroke-linecap="round" stroke-linejoin="round"/>
</svg>
