<svg width="16" height="12" viewBox="0 0 16 12" fill="none" xmlns="http://www.w3.org/2000/svg">
<path d="M15.8981 6.22109L9.95727 11.8461C9.89534 11.9047 9.81134 11.9377 9.72376 11.9377C9.63617 11.9377 9.55218 11.9047 9.49025 11.8461C9.42832 11.7875 9.39353 11.7079 9.39353 11.625C9.39353 11.5421 9.42832 11.4625 9.49025 11.4039L14.8675 6.3125H1.14255C1.05501 6.3125 0.971064 6.27957 0.909168 6.22097C0.847273 6.16236 0.8125 6.08288 0.8125 6C0.8125 5.91712 0.847273 5.83763 0.909168 5.77903C0.971064 5.72042 1.05501 5.6875 1.14255 5.6875H14.8675L9.49025 0.596092C9.42832 0.537454 9.39353 0.457924 9.39353 0.374998C9.39353 0.292072 9.42832 0.212542 9.49025 0.153905C9.55218 0.095267 9.63617 0.0623245 9.72376 0.0623245C9.81134 0.0623245 9.89534 0.0952667 9.95727 0.153904L15.8981 5.7789C15.9288 5.80793 15.9531 5.84239 15.9697 5.88033C15.9864 5.91827 15.9949 5.95893 15.9949 6C15.9949 6.04107 15.9864 6.08173 15.9697 6.11967C15.9531 6.1576 15.9288 6.19207 15.8981 6.22109Z" fill="black"/>
</svg>
