<svg width="30" height="30" viewBox="0 0 30 30" fill="none" xmlns="http://www.w3.org/2000/svg">
<path d="M30 22.5C30 23.384 29.6488 24.2319 29.0237 24.857C28.3986 25.4821 27.5507 25.8333 26.6667 25.8333H3.33333C2.44928 25.8333 1.60143 25.4821 0.976311 24.857C0.35119 24.2319 0 23.384 0 22.5V7.49999C0 6.61593 0.35119 5.76809 0.976311 5.14297C1.60143 4.51785 2.44928 4.16666 3.33333 4.16666H26.6667C27.5507 4.16666 28.3986 4.51785 29.0237 5.14297C29.6488 5.76809 30 6.61593 30 7.49999V22.5Z" fill="#009B3A"/>
<path d="M27.2734 15L15 24.27L2.72668 15L15 5.72916L27.2734 15Z" fill="#FEDF01"/>
<path d="M14.98 20.3183C17.9522 20.3183 20.3617 17.9089 20.3617 14.9367C20.3617 11.9644 17.9522 9.55499 14.98 9.55499C12.0078 9.55499 9.59833 11.9644 9.59833 14.9367C9.59833 17.9089 12.0078 20.3183 14.98 20.3183Z" fill="#002776"/>
<path d="M10.2308 12.4058C9.95133 12.9326 9.76204 13.5024 9.67084 14.0917C13 13.85 17.5183 15.6675 19.4575 17.9208C19.7925 17.4175 20.0408 16.8542 20.1933 16.2508C17.8 13.9108 13.5958 12.3925 10.2308 12.4058Z" fill="#CBE9D4"/>
<path d="M10 15.1942H10.8333V16.0275H10V15.1942ZM10.8333 16.8608H11.6667V17.6942H10.8333V16.8608Z" fill="#88C9F9"/>
<path d="M12.5 15.1942H13.3333V16.0275H12.5V15.1942ZM14.1667 16.0275H15V16.8608H14.1667V16.0275ZM17.5 17.6942H18.3333V18.5275H17.5V17.6942ZM15 18.5275H15.8333V19.3608H15V18.5275ZM17.5 13.5275H18.3333V14.3608H17.5V13.5275Z" fill="#55ACEE"/>
<path d="M15.8333 16.8608H16.6666V17.6942H15.8333V16.8608Z" fill="#3B88C3"/>
</svg>
